# xmcd CD database file
#
# Track frame offsets:
#	150
#	12661
#	25575
#	34186
#	46361
#	57098
#	67807
#	77536
#	86646
#	98653
#	109044
#	122369
#	133016
#	148689
#	159192
#	167397
#	180014
#	191642
#	202854
#	216452
#	226397
#	239387
#	252179
#	263542
#	275024
#
# Disc length: 3844 seconds
#
# Revision: 1
# Processed by: cddbd v1.5.2PL0 Copyright (c) Steve Scherf et al.
# Submitted via: CDex 1.77
#
DISCID=410f0219
DTITLE=Nat King Cole - KIng Of Songs Classic
DYEAR=2003
DGENRE=Jazz
TTITLE0=Quizas Quizas Quizas
TTITLE1=Cachito
TTITLE2=Fantastico
TTITLE3=Maria Eleona
TTITLE4=El Bodeguero
TTITLE5=Yo Vendo Unos Ojos Negros
TTITLE6=Adelita
TTITLE7=Guadalajara
TTITLE8=Te Quiero Dijiste
TTITLE9=Nao Tenho Legrimas
TTITLE10=La Golondrina
TTITLE11=Suas Maos
TTITLE12=Ansiedad
TTITLE13=Perfidia
TTITLE14=La Feria De Las Flores
TTITLE15=Solamente Una Vez
TTITLE16=Las Chiapanecas
TTITLE17=Capullito Del Alell
TTITLE18=No Me Platiques
TTITLE19=El Choclo
TTITLE20=Adios Mariquita Linda
TTITLE21=Acercate Mas
TTITLE22=Vaya Con Dios
TTITLE23=Noche De Ronda
TTITLE24=Las Mananitas
EXTD=YEAR: 2003
EXTT0=
EXTT1=
EXTT2=
EXTT3=
EXTT4=
EXTT5=
EXTT6=
EXTT7=
EXTT8=
EXTT9=
EXTT10=
EXTT11=
EXTT12=
EXTT13=
EXTT14=
EXTT15=
EXTT16=
EXTT17=
EXTT18=
EXTT19=
EXTT20=
EXTT21=
EXTT22=
EXTT23=
EXTT24=
PLAYORDER=
